<?xml version="1.0" encoding="UTF-8" standalone="no"?><svg width="15" height="15" viewBox="0 0 15 15" fill="none" xmlns="http://www.w3.org/2000/svg">
<path fill-rule="evenodd" clip-rule="evenodd" d="M7.4999 13.1C8.98512 13.1 10.4095 12.51 11.4597 11.4598C12.5099 10.4096 13.0999 8.98524 13.0999 7.50002C13.0999 6.01481 12.5099 4.59043 11.4597 3.54023C10.4095 2.49002 8.98512 1.90002 7.4999 1.90002C6.01469 1.90002 4.59031 2.49002 3.5401 3.54023C2.4899 4.59043 1.8999 6.01481 1.8999 7.50002C1.8999 8.98524 2.4899 10.4096 3.5401 11.4598C4.59031 12.51 6.01469 13.1 7.4999 13.1ZM10.1998 6.23372C10.2403 6.17793 10.2695 6.11469 10.2856 6.04762C10.3017 5.98056 10.3044 5.91098 10.2936 5.84286C10.2828 5.77474 10.2587 5.70941 10.2227 5.6506C10.1867 5.5918 10.1394 5.54066 10.0836 5.50012C10.0278 5.45959 9.96457 5.43043 9.8975 5.41433C9.83044 5.39823 9.76086 5.3955 9.69274 5.40629C9.62462 5.41708 9.55929 5.44118 9.50048 5.47722C9.44167 5.51326 9.39054 5.56053 9.35 5.61632L6.9119 8.96932L5.5959 7.65332C5.54745 7.60321 5.4895 7.56324 5.42543 7.53575C5.36137 7.50827 5.29247 7.49382 5.22276 7.49325C5.15305 7.49267 5.08393 7.50599 5.01942 7.53242C4.95491 7.55885 4.89631 7.59786 4.84704 7.64717C4.79777 7.69649 4.75882 7.75512 4.73245 7.81966C4.70608 7.88419 4.69283 7.95333 4.69347 8.02304C4.69411 8.09275 4.70863 8.16163 4.73617 8.22567C4.76371 8.28971 4.80374 8.34762 4.8539 8.39602L6.6039 10.146C6.65754 10.1997 6.72218 10.2411 6.79335 10.2674C6.86453 10.2937 6.94056 10.3042 7.01621 10.2983C7.09186 10.2924 7.16532 10.2701 7.23154 10.2331C7.29776 10.196 7.35517 10.1451 7.3998 10.0837L10.1998 6.23372Z" fill="#019421"/>
</svg>
