<?xml version="1.0" encoding="UTF-8" standalone="no"?><svg width="15" height="15" viewBox="0 0 15 15" fill="none" xmlns="http://www.w3.org/2000/svg">
<g clip-path="url(#clip0_703_13988)">
<path d="M11.1401 2.23119L11.1401 2.23116C11.3682 2.00311 11.6775 1.875 12 1.875C12.3225 1.875 12.6317 2.00311 12.8598 2.23116C13.0878 2.4592 13.2159 2.76849 13.2159 3.09099C13.2159 3.41347 13.0878 3.72275 12.8598 3.95079C12.8598 3.9508 12.8598 3.95081 12.8598 3.95082L7.66983 9.13929L7.66979 9.13933C7.41827 9.39085 7.11832 9.58899 6.78855 9.72076L6.7884 9.72083L4.4229 10.6673L4.42285 10.6673L4.44971 10.6003V10.5995L5.36936 8.30032C5.36937 8.3003 5.36938 8.30028 5.36938 8.30026C5.50138 7.97047 5.69893 7.6709 5.95008 7.41969C5.9501 7.41967 5.95012 7.41965 5.95014 7.41963L11.1401 2.23119Z" fill="#7A7A7A" stroke="#7A7A7A" stroke-width="0.75"/>
<path d="M2.625 4.40199C2.625 3.88449 3.045 3.46449 3.5625 3.46449H7.5C7.64918 3.46449 7.79226 3.40523 7.89775 3.29974C8.00324 3.19425 8.0625 3.05118 8.0625 2.90199C8.0625 2.75281 8.00324 2.60973 7.89775 2.50425C7.79226 2.39876 7.64918 2.33949 7.5 2.33949H3.5625C3.01549 2.33949 2.49089 2.55679 2.10409 2.94359C1.7173 3.33038 1.5 3.85498 1.5 4.40199V11.527C1.5 12.074 1.7173 12.5986 2.10409 12.9854C2.49089 13.3722 3.01549 13.5895 3.5625 13.5895H10.6875C11.2345 13.5895 11.7591 13.3722 12.1459 12.9854C12.5327 12.5986 12.75 12.074 12.75 11.527V7.58949C12.75 7.44031 12.6907 7.29723 12.5852 7.19175C12.4798 7.08626 12.3367 7.02699 12.1875 7.02699C12.0383 7.02699 11.8952 7.08626 11.7898 7.19175C11.6843 7.29723 11.625 7.44031 11.625 7.58949V11.527C11.625 12.0445 11.205 12.4645 10.6875 12.4645H3.5625C3.045 12.4645 2.625 12.0445 2.625 11.527V4.40199Z" fill="#7A7A7A"/>
</g>
<defs>
<clipPath id="clip0_703_13988">
<rect width="15" height="15" fill="white"/>
</clipPath>
</defs>
</svg>
