<?xml version="1.0" encoding="UTF-8" standalone="no"?><svg width="20" height="20" viewBox="0 0 20 20" fill="none" xmlns="http://www.w3.org/2000/svg">
<path d="M12.5 7V3.25C12.5 2.65326 12.2629 2.08097 11.841 1.65901C11.419 1.23705 10.8467 1 10.25 1H4.25C3.65326 1 3.08097 1.23705 2.65901 1.65901C2.23705 2.08097 2 2.65326 2 3.25V16.75C2 17.3467 2.23705 17.919 2.65901 18.341C3.08097 18.7629 3.65326 19 4.25 19H10.25C10.8467 19 11.419 18.7629 11.841 18.341C12.2629 17.919 12.5 17.3467 12.5 16.75V13M8.75 7L5.75 10M5.75 10L8.75 13M5.75 10H18.5" stroke="#8A6D05" stroke-width="1.5" stroke-linecap="round" stroke-linejoin="round"/>
</svg>
