<?xml version="1.0" encoding="UTF-8" standalone="no"?><svg width="24" height="25" viewBox="0 0 24 25" fill="none" xmlns="http://www.w3.org/2000/svg">
<path d="M11.75 7C11.5511 7 11.3603 6.92098 11.2197 6.78033C11.079 6.63968 11 6.44891 11 6.25C11 6.05109 11.079 5.86032 11.2197 5.71967C11.3603 5.57902 11.5511 5.5 11.75 5.5C11.9489 5.5 12.1397 5.57902 12.2803 5.71967C12.421 5.86032 12.5 6.05109 12.5 6.25C12.5 6.44891 12.421 6.63968 12.2803 6.78033C12.1397 6.92098 11.9489 7 11.75 7ZM11.75 13C11.5511 13 11.3603 12.921 11.2197 12.7803C11.079 12.6397 11 12.4489 11 12.25C11 12.0511 11.079 11.8603 11.2197 11.7197C11.3603 11.579 11.5511 11.5 11.75 11.5C11.9489 11.5 12.1397 11.579 12.2803 11.7197C12.421 11.8603 12.5 12.0511 12.5 12.25C12.5 12.4489 12.421 12.6397 12.2803 12.7803C12.1397 12.921 11.9489 13 11.75 13ZM11.75 19C11.5511 19 11.3603 18.921 11.2197 18.7803C11.079 18.6397 11 18.4489 11 18.25C11 18.0511 11.079 17.8603 11.2197 17.7197C11.3603 17.579 11.5511 17.5 11.75 17.5C11.9489 17.5 12.1397 17.579 12.2803 17.7197C12.421 17.8603 12.5 18.0511 12.5 18.25C12.5 18.4489 12.421 18.6397 12.2803 18.7803C12.1397 18.921 11.9489 19 11.75 19Z" stroke="#5C5C5C" stroke-width="1.5" stroke-linecap="round" stroke-linejoin="round"/>
</svg>
