<?xml version="1.0" encoding="UTF-8" standalone="no"?><svg width="20" height="20" viewBox="0 0 20 20" fill="none" xmlns="http://www.w3.org/2000/svg">
<g clip-path="url(#clip0_1228_6100)">
<path d="M14.8078 12.771C15.2756 12.4515 15.8242 12.2711 16.3903 12.2504C16.9564 12.2298 17.5168 12.3699 18.0066 12.6544C18.4964 12.939 18.8956 13.3564 19.1581 13.8584C19.4206 14.3604 19.5356 14.9264 19.4898 15.491C18.2899 15.9103 17.0155 16.0735 15.7488 15.97C15.7449 14.8366 15.4185 13.7268 14.8078 12.772C14.2657 11.9218 13.5179 11.222 12.6336 10.7375C11.7493 10.253 10.7571 9.99932 9.74876 10C8.7406 9.99948 7.74859 10.2532 6.86449 10.7377C5.9804 11.2223 5.23277 11.9219 4.69076 12.772M15.7478 15.969L15.7488 16C15.7488 16.225 15.7368 16.447 15.7118 16.666C13.8971 17.7071 11.8409 18.2533 9.74876 18.25C7.57876 18.25 5.54176 17.674 3.78576 16.666C3.76006 16.4346 3.7477 16.2019 3.74876 15.969M3.74876 15.969C2.48239 16.0763 1.20867 15.9137 0.00976435 15.492C-0.0358847 14.9276 0.0791588 14.3617 0.341593 13.8599C0.604027 13.3581 1.00313 12.9408 1.49277 12.6563C1.9824 12.3718 2.54256 12.2317 3.10848 12.2521C3.67441 12.2726 4.22297 12.4528 4.69076 12.772M3.74876 15.969C3.75236 14.8357 4.08039 13.7269 4.69076 12.772M12.7488 4C12.7488 4.79565 12.4327 5.55871 11.8701 6.12132C11.3075 6.68393 10.5444 7 9.74876 7C8.95311 7 8.19005 6.68393 7.62744 6.12132C7.06483 5.55871 6.74876 4.79565 6.74876 4C6.74876 3.20435 7.06483 2.44129 7.62744 1.87868C8.19005 1.31607 8.95311 1 9.74876 1C10.5444 1 11.3075 1.31607 11.8701 1.87868C12.4327 2.44129 12.7488 3.20435 12.7488 4ZM18.7488 7C18.7488 7.29547 18.6906 7.58806 18.5775 7.86104C18.4644 8.13402 18.2987 8.38206 18.0898 8.59099C17.8808 8.79992 17.6328 8.96566 17.3598 9.07873C17.0868 9.1918 16.7942 9.25 16.4988 9.25C16.2033 9.25 15.9107 9.1918 15.6377 9.07873C15.3647 8.96566 15.1167 8.79992 14.9078 8.59099C14.6988 8.38206 14.5331 8.13402 14.42 7.86104C14.307 7.58806 14.2488 7.29547 14.2488 7C14.2488 6.40326 14.4858 5.83097 14.9078 5.40901C15.3297 4.98705 15.902 4.75 16.4988 4.75C17.0955 4.75 17.6678 4.98705 18.0898 5.40901C18.5117 5.83097 18.7488 6.40326 18.7488 7ZM5.24876 7C5.24876 7.29547 5.19057 7.58806 5.07749 7.86104C4.96442 8.13402 4.79869 8.38206 4.58975 8.59099C4.38082 8.79992 4.13278 8.96566 3.8598 9.07873C3.58682 9.1918 3.29424 9.25 2.99876 9.25C2.70329 9.25 2.41071 9.1918 2.13773 9.07873C1.86474 8.96566 1.61671 8.79992 1.40777 8.59099C1.19884 8.38206 1.03311 8.13402 0.920036 7.86104C0.806962 7.58806 0.748764 7.29547 0.748764 7C0.748764 6.40326 0.985817 5.83097 1.40777 5.40901C1.82973 4.98705 2.40203 4.75 2.99876 4.75C3.5955 4.75 4.1678 4.98705 4.58975 5.40901C5.01171 5.83097 5.24876 6.40326 5.24876 7Z" stroke="#8A6D05" stroke-width="1.5" stroke-linecap="round" stroke-linejoin="round"/>
</g>
<defs>
<clipPath id="clip0_1228_6100">
<rect width="20" height="20" fill="white"/>
</clipPath>
</defs>
</svg>
