<?xml version="1.0" encoding="UTF-8" standalone="no"?><svg width="12" height="12" viewBox="0 0 12 12" fill="none" xmlns="http://www.w3.org/2000/svg">
<g clip-path="url(#clip0_703_13966)">
<path d="M3.03622 2.018L3.37507 1.98518V1.64475V1.3125C3.37507 0.864947 3.55286 0.435725 3.86933 0.119257C4.18579 -0.19721 4.61502 -0.375 5.06257 -0.375H6.93757C7.38512 -0.375 7.81434 -0.19721 8.13081 0.119257L8.39598 -0.145908L8.13081 0.119257C8.44728 0.435725 8.62507 0.864947 8.62507 1.3125V1.64475V1.98527L8.96402 2.01801C9.54865 2.07448 10.1315 2.14788 10.7119 2.23813C10.7593 2.24704 10.8015 2.27388 10.8296 2.31313C10.8582 2.35305 10.8701 2.40261 10.8625 2.45115C10.855 2.4997 10.8287 2.54334 10.7893 2.57271L11.0135 2.87334L10.7893 2.57271C10.7506 2.60159 10.7022 2.61439 10.6544 2.6085L10.5468 2.59189L10.1479 2.53032L10.1158 2.93262L9.48502 10.8225C9.45108 11.2454 9.25908 11.64 8.94726 11.9277C8.63545 12.2154 8.2267 12.3751 7.80243 12.375H7.80232H4.19711C4.19709 12.375 4.19708 12.375 4.19707 12.375C3.77282 12.3749 3.36416 12.2151 3.05246 11.9273C2.74076 11.6395 2.54891 11.2448 2.51513 10.8219L2.51513 10.8219L1.88438 2.93336L1.85242 2.53371L1.45579 2.59227L1.34404 2.60877L1.34403 2.60865L1.33444 2.61032C1.30989 2.6146 1.28474 2.61394 1.26045 2.60838L1.17686 2.97395L1.26045 2.60838C1.23616 2.60283 1.21322 2.59249 1.19298 2.57797C1.17273 2.56345 1.15558 2.54504 1.14253 2.52382C1.12948 2.50259 1.12079 2.47898 1.11696 2.45436C1.11314 2.42974 1.11427 2.4046 1.12027 2.38042C1.12628 2.35624 1.13704 2.33349 1.15193 2.31352C1.16683 2.29355 1.18555 2.27674 1.20702 2.26409C1.22848 2.25143 1.25225 2.24318 1.27694 2.23982L1.27695 2.23989L1.2842 2.23876C1.86247 2.14843 2.44696 2.07508 3.03622 2.018ZM7.85244 1.93057L8.25007 1.95461V1.55625V1.3125C8.25007 0.587893 7.66218 0 6.93757 0H5.06257C4.33796 0 3.75007 0.587893 3.75007 1.3125V1.55625V1.95461L4.1477 1.93057C4.76032 1.89353 5.37752 1.875 6.00007 1.875C6.62262 1.875 7.23982 1.89353 7.85244 1.93057ZM4.99085 10.789L4.83663 10.4551L4.99086 10.789C5.10268 10.7374 5.20323 10.6642 5.28678 10.5737C5.37033 10.4832 5.43523 10.3771 5.47777 10.2615C5.52032 10.1459 5.53969 10.0231 5.53477 9.90001L5.30977 4.27501C5.29983 4.02645 5.19155 3.79202 5.00876 3.62329C4.82597 3.45456 4.58364 3.36536 4.33508 3.3753C4.08652 3.38524 3.85209 3.49352 3.68336 3.67631C3.51463 3.8591 3.42543 4.10143 3.43537 4.34999L3.66037 9.97499C3.66529 10.0981 3.69441 10.219 3.74606 10.3308C3.7977 10.4426 3.87087 10.5432 3.96138 10.6267C4.05188 10.7103 4.15796 10.7752 4.27355 10.8177C4.38914 10.8603 4.51198 10.8796 4.63506 10.8747C4.75813 10.8698 4.87903 10.8407 4.99085 10.789ZM8.02086 3.46099L7.86362 3.80143L8.02085 3.46099C7.90903 3.40934 7.78813 3.38022 7.66506 3.3753C7.4165 3.36536 7.17417 3.45456 6.99138 3.62329C6.80859 3.79202 6.70031 4.02645 6.69037 4.27501L6.46537 9.90001C6.46045 10.0231 6.47981 10.1459 6.52236 10.2615C6.56491 10.3771 6.62981 10.4832 6.71336 10.5737C6.79691 10.6642 6.89746 10.7374 7.00928 10.789L7.16652 10.4486L7.00929 10.789C7.12111 10.8407 7.242 10.8698 7.36508 10.8747C7.48816 10.8796 7.61099 10.8603 7.72659 10.8177C7.84218 10.7752 7.94825 10.7103 8.03876 10.6267C8.12927 10.5432 8.20244 10.4426 8.25408 10.3308L7.91364 10.1735L8.25408 10.3308C8.30573 10.219 8.33485 10.0981 8.33977 9.97499L8.56477 4.34999C8.56969 4.22691 8.55033 4.10407 8.50778 3.98848C8.46523 3.87289 8.40032 3.76681 8.31678 3.67631C8.23323 3.5858 8.13268 3.51263 8.02086 3.46099Z" fill="#FF5630" stroke="#FF5630" stroke-width="0.75"/>
</g>
<defs>
<clipPath id="clip0_703_13966">
<rect width="12" height="12" fill="white"/>
</clipPath>
</defs>
</svg>
