<?xml version="1.0" encoding="UTF-8" standalone="no"?><svg width="16" height="16" viewBox="0 0 16 16" fill="none" xmlns="http://www.w3.org/2000/svg">
<path d="M4.5 3.5H5H11H11.5H12H12.5C12.8978 3.5 13.2794 3.65804 13.5607 3.93934C13.842 4.22064 14 4.60218 14 5V7.5C14 7.10217 13.842 6.72064 13.5607 6.43934C13.2794 6.15804 12.8978 6 12.5 6H3.5C3.10218 6 2.72064 6.15804 2.43934 6.43934C2.15803 6.72064 2 7.10218 2 7.5V5C2 4.60218 2.15804 4.22064 2.43934 3.93934C2.72064 3.65804 3.10218 3.5 3.5 3.5H4H4.5Z" fill="#CCCCCC" stroke="#CCCCCC"/>
</svg>
