<?xml version="1.0" encoding="UTF-8" standalone="no"?><svg width="15" height="15" viewBox="0 0 15 15" fill="none" xmlns="http://www.w3.org/2000/svg">
<g clip-path="url(#clip0_703_13962)">
<path d="M13.149 13.0653L13.1491 13.0652L13.1398 13.0558L2.2707 2.18674C2.23966 2.15165 2.22283 2.10615 2.22366 2.05919C2.22452 2.01062 2.2442 1.96427 2.27855 1.92992C2.3129 1.89556 2.35925 1.87589 2.40783 1.87503C2.4548 1.8742 2.5003 1.89103 2.53539 1.92209L4.01075 3.3967L4.20822 3.59406L4.45392 3.4615C5.49209 2.90135 6.65359 2.60902 7.83323 2.61097H7.83385C9.27426 2.61099 10.6809 3.0474 11.8683 3.8627C13.0558 4.67797 13.9683 5.83386 14.4858 7.17805C14.5624 7.3773 14.5625 7.59787 14.486 7.79715C14.0073 9.03579 13.193 10.1166 12.1345 10.9183L11.7914 11.1781L12.0957 11.4824L13.4044 12.7911L13.4043 12.7913L13.414 12.8003C13.4324 12.8175 13.4472 12.8382 13.4574 12.8612L13.7999 12.7086L13.4574 12.8612C13.4676 12.8842 13.4732 12.909 13.4736 12.9342C13.474 12.9594 13.4694 12.9844 13.46 13.0077C13.4506 13.0311 13.4365 13.0523 13.4187 13.0701L13.6839 13.3352L13.4187 13.0701C13.4009 13.0879 13.3797 13.1019 13.3564 13.1114C13.333 13.1208 13.308 13.1254 13.2828 13.125C13.2576 13.1245 13.2328 13.119 13.2098 13.1088L13.0572 13.4513L13.2098 13.1088C13.1868 13.0985 13.1661 13.0837 13.149 13.0653ZM5.93772 4.69338L5.56301 4.94821L5.88344 5.26863L6.70244 6.08763L6.8972 6.2824L7.14131 6.15481C7.42437 6.00686 7.74726 5.95313 8.06298 6.00143C8.3787 6.04973 8.67076 6.19755 8.89664 6.42336C9.12252 6.64917 9.27042 6.94119 9.31882 7.25689C9.36721 7.5726 9.31357 7.89551 9.16571 8.17861L9.03829 8.42256L9.23282 8.61726L10.0511 9.43626L10.3715 9.75698L10.6264 9.3821C11.0682 8.73252 11.2695 7.94918 11.1957 7.16709C11.1219 6.385 10.7776 5.65315 10.2221 5.09768C9.66667 4.5422 8.93482 4.19789 8.15273 4.12409C7.37064 4.05029 6.5873 4.25162 5.93772 4.69338Z" fill="#7A7A7A" stroke="#7A7A7A" stroke-width="0.75"/>
<path d="M8.39563 10.4335L10.2879 12.3257C9.49895 12.5981 8.67003 12.7368 7.83538 12.736C4.64188 12.736 1.91488 10.741 0.832629 7.92846C0.722457 7.6422 0.722457 7.32523 0.832629 7.03896C1.19898 6.09127 1.75394 5.22782 2.46388 4.50096L4.88713 6.92496C4.79555 7.40557 4.82291 7.90129 4.96682 8.36891C5.11074 8.83652 5.36683 9.26184 5.71279 9.6078C6.05875 9.95376 6.48407 10.2099 6.95168 10.3538C7.4193 10.4977 7.91502 10.525 8.39563 10.4335Z" fill="#7A7A7A"/>
</g>
<defs>
<clipPath id="clip0_703_13962">
<rect width="15" height="15" fill="white"/>
</clipPath>
</defs>
</svg>
