<?xml version="1.0" encoding="UTF-8" standalone="no"?><svg width="36" height="36" viewBox="0 0 36 36" fill="none" xmlns="http://www.w3.org/2000/svg">
<path d="M18.0036 34.0734C26.8787 34.0734 34.0734 26.8787 34.0734 18.0036C34.0734 9.12853 26.8787 1.93384 18.0036 1.93384C9.12853 1.93384 1.93384 9.12853 1.93384 18.0036C1.93384 26.8787 9.12853 34.0734 18.0036 34.0734Z" fill="black"/>
<path d="M18.0035 36C14.4432 36.0007 10.9626 34.9455 8.00193 32.9679C5.04131 30.9903 2.73366 28.1791 1.37085 24.8899C0.00803568 21.6007 -0.34872 17.9812 0.345702 14.4892C1.04012 10.9973 2.75453 7.78964 5.27209 5.27209C7.78964 2.75453 10.9973 1.04012 14.4892 0.345702C17.9812 -0.34872 21.6007 0.00803568 24.8899 1.37085C28.1791 2.73366 30.9903 5.04131 32.9679 8.00193C34.9455 10.9626 36.0007 14.4432 36 18.0035C35.9935 22.7745 34.0954 27.3482 30.7218 30.7218C27.3482 34.0954 22.7745 35.9935 18.0035 36ZM18.0035 3.86392C15.2068 3.86322 12.4727 4.69191 10.147 6.24516C7.82131 7.79842 6.00846 10.0065 4.93773 12.5901C3.867 15.1737 3.58649 18.0168 4.13167 20.7599C4.67685 23.5029 6.02324 26.0227 8.00056 28.0005C9.97788 29.9783 12.4973 31.3253 15.2402 31.8712C17.9831 32.417 20.8263 32.1372 23.4102 31.0671C25.9941 29.997 28.2026 28.1847 29.7564 25.8594C31.3102 23.5341 32.1396 20.8002 32.1396 18.0035C32.1359 14.2552 30.6455 10.6614 27.9953 8.01065C25.3452 5.35987 21.7518 3.86856 18.0035 3.86392Z" fill="black"/>
<path d="M18.0034 3.22522C15.1707 3.22465 12.3975 4.03763 10.0135 5.56747C7.62942 7.09731 5.7349 9.27964 4.55518 11.855H31.4481C30.269 9.27992 28.3751 7.09771 25.9917 5.56786C23.6083 4.03801 20.8356 3.22489 18.0034 3.22522Z" fill="black"/>
<path d="M31.4484 11.3953H4.55545C3.6697 13.3277 3.21118 15.4285 3.21118 17.5544C3.21118 19.6802 3.6697 21.781 4.55545 23.7135H31.4484C32.3342 21.781 32.7927 19.6802 32.7927 17.5544C32.7927 15.4285 32.3342 13.3277 31.4484 11.3953Z" fill="#FFD100"/>
<path d="M18.0035 32.7959C26.1731 32.7959 32.7959 26.1731 32.7959 18.0035C32.7959 9.83394 26.1731 3.21118 18.0035 3.21118C9.83394 3.21118 3.21118 9.83394 3.21118 18.0035C3.21118 26.1731 9.83394 32.7959 18.0035 32.7959Z" stroke="white" stroke-width="3" stroke-miterlimit="10"/>
<path d="M26.0367 28.5634H20.2882L18.2246 23.6958H23.9731L26.0367 28.5634Z" fill="white"/>
<path d="M16.4104 28.5494H10.4443V14.9432C10.4443 13.4629 10.8757 12.0146 11.6857 10.7756C12.4958 9.53654 13.6494 8.56046 15.0055 7.96674C16.3616 7.37301 17.8613 7.18739 19.3212 7.43258C20.7811 7.67777 22.1379 8.34313 23.2256 9.34728C24.3133 10.3514 25.0848 11.6508 25.4456 13.0865C25.8065 14.5222 25.7411 16.032 25.2574 17.4311C24.7738 18.8302 23.8928 20.058 22.7224 20.9643C21.5519 21.8706 20.1426 22.4162 18.667 22.5342L16.4104 28.5494Z" fill="#919396"/>
<path d="M18.0491 18.0176C19.7043 18.0176 21.0462 16.6758 21.0462 15.0205C21.0462 13.3653 19.7043 12.0234 18.0491 12.0234C16.3938 12.0234 15.052 13.3653 15.052 15.0205C15.052 16.6758 16.3938 18.0176 18.0491 18.0176Z" fill="white"/>
</svg>
