<?xml version="1.0" encoding="UTF-8" standalone="no"?><svg width="20" height="20" viewBox="0 0 20 20" fill="none" xmlns="http://www.w3.org/2000/svg">
<path d="M12.084 8.75C12.084 9.41304 11.8206 10.0489 11.3518 10.5178C10.8829 10.9866 10.247 11.25 9.58398 11.25C8.92094 11.25 8.28506 10.9866 7.81622 10.5178C7.34738 10.0489 7.08398 9.41304 7.08398 8.75C7.08398 8.08696 7.34738 7.45107 7.81622 6.98223C8.28506 6.51339 8.92094 6.25 9.58398 6.25C10.247 6.25 10.8829 6.51339 11.3518 6.98223C11.8206 7.45107 12.084 8.08696 12.084 8.75Z" stroke="#271F01" stroke-width="1.5" stroke-linecap="round" stroke-linejoin="round"/>
<path d="M15.834 8.75C15.834 14.7017 9.58398 18.125 9.58398 18.125C9.58398 18.125 3.33398 14.7017 3.33398 8.75C3.33398 7.0924 3.99246 5.50268 5.16457 4.33058C6.33667 3.15848 7.92638 2.5 9.58398 2.5C11.2416 2.5 12.8313 3.15848 14.0034 4.33058C15.1755 5.50268 15.834 7.0924 15.834 8.75Z" stroke="#271F01" stroke-width="1.5" stroke-linecap="round" stroke-linejoin="round"/>
</svg>
