<?xml version="1.0" encoding="UTF-8" standalone="no"?><svg width="15" height="15" viewBox="0 0 15 15" fill="none" xmlns="http://www.w3.org/2000/svg">
<path fill-rule="evenodd" clip-rule="evenodd" d="M13.0999 7.50002C13.0999 8.98524 12.5099 10.4096 11.4597 11.4598C10.4095 12.51 8.98511 13.1 7.4999 13.1C6.01469 13.1 4.59031 12.51 3.5401 11.4598C2.4899 10.4096 1.8999 8.98524 1.8999 7.50002C1.8999 6.01481 2.4899 4.59043 3.5401 3.54023C4.59031 2.49002 6.01469 1.90002 7.4999 1.90002C8.98511 1.90002 10.4095 2.49002 11.4597 3.54023C12.5099 4.59043 13.0999 6.01481 13.0999 7.50002ZM7.4999 4.00002C7.63914 4.00002 7.77268 4.05534 7.87113 4.15379C7.96959 4.25225 8.0249 4.38579 8.0249 4.52502V7.67502C8.0249 7.81426 7.96959 7.9478 7.87113 8.04626C7.77268 8.14471 7.63914 8.20002 7.4999 8.20002C7.36066 8.20002 7.22713 8.14471 7.12867 8.04626C7.03021 7.9478 6.9749 7.81426 6.9749 7.67502V4.52502C6.9749 4.38579 7.03021 4.25225 7.12867 4.15379C7.22713 4.05534 7.36066 4.00002 7.4999 4.00002ZM7.4999 11C7.68555 11 7.8636 10.9263 7.99488 10.795C8.12615 10.6637 8.1999 10.4857 8.1999 10.3C8.1999 10.1144 8.12615 9.93633 7.99488 9.80505C7.8636 9.67377 7.68555 9.60002 7.4999 9.60002C7.31425 9.60002 7.1362 9.67377 7.00493 9.80505C6.87365 9.93633 6.7999 10.1144 6.7999 10.3C6.7999 10.4857 6.87365 10.6637 7.00493 10.795C7.1362 10.9263 7.31425 11 7.4999 11Z" fill="#C31A00"/>
</svg>
