<?xml version="1.0" encoding="UTF-8" standalone="no"?><svg width="20" height="20" viewBox="0 0 20 20" fill="none" xmlns="http://www.w3.org/2000/svg">
<path fill-rule="evenodd" clip-rule="evenodd" d="M6.60005 5.80005C6.60005 5.0044 6.91612 4.24134 7.47873 3.67873C8.04134 3.11612 8.8044 2.80005 9.60005 2.80005C10.3957 2.80005 11.1588 3.11612 11.7214 3.67873C12.284 4.24134 12.6 5.0044 12.6 5.80005C12.6 6.5957 12.284 7.35876 11.7214 7.92137C11.1588 8.48398 10.3957 8.80005 9.60005 8.80005C8.8044 8.80005 8.04134 8.48398 7.47873 7.92137C6.91612 7.35876 6.60005 6.5957 6.60005 5.80005ZM12.6 8.20005C12.6 7.56353 12.8529 6.95308 13.303 6.50299C13.7531 6.05291 14.3635 5.80005 15 5.80005C15.6366 5.80005 16.247 6.05291 16.6971 6.50299C17.1472 6.95308 17.4 7.56353 17.4 8.20005C17.4 8.83657 17.1472 9.44702 16.6971 9.89711C16.247 10.3472 15.6366 10.6 15 10.6C14.3635 10.6 13.7531 10.3472 13.303 9.89711C12.8529 9.44702 12.6 8.83657 12.6 8.20005ZM1.80005 8.20005C1.80005 7.56353 2.05291 6.95308 2.50299 6.50299C2.95308 6.05291 3.56353 5.80005 4.20005 5.80005C4.83657 5.80005 5.44702 6.05291 5.89711 6.50299C6.34719 6.95308 6.60005 7.56353 6.60005 8.20005C6.60005 8.83657 6.34719 9.44702 5.89711 9.89711C5.44702 10.3472 4.83657 10.6 4.20005 10.6C3.56353 10.6 2.95308 10.3472 2.50299 9.89711C2.05291 9.44702 1.80005 8.83657 1.80005 8.20005ZM5.04805 12.4936C5.53601 11.7289 6.20891 11.0995 7.00455 10.6636C7.80018 10.2278 8.69286 9.99954 9.60005 10C10.3599 9.99935 11.1113 10.1592 11.8052 10.469C12.499 10.7788 13.1196 11.2317 13.6262 11.7979C14.1329 12.3642 14.5143 13.0311 14.7454 13.755C14.9765 14.4788 15.0521 15.2433 14.9672 15.9984C14.9569 16.0923 14.9245 16.1823 14.8728 16.2613C14.8211 16.3402 14.7515 16.4059 14.6696 16.4528C13.1269 17.3381 11.3787 17.8026 9.60005 17.8C7.75605 17.8 6.02405 17.3104 4.53045 16.4528C4.4486 16.4059 4.37899 16.3402 4.32728 16.2613C4.27557 16.1823 4.24322 16.0923 4.23285 15.9984C4.09849 14.7717 4.38602 13.5359 5.04805 12.4944V12.4936Z" fill="#003D3D"/>
<path d="M4.06571 11.8032C3.27671 13.0211 2.90911 14.4643 3.01931 15.9112C2.53891 15.8384 2.06643 15.7205 1.60811 15.5592L1.51611 15.5272C1.43402 15.4981 1.36215 15.4458 1.30919 15.3766C1.25622 15.3075 1.22445 15.2245 1.21771 15.1376L1.20971 15.0408C1.17739 14.6392 1.22631 14.2352 1.35355 13.8529C1.48079 13.4705 1.68374 13.1178 1.95029 12.8156C2.21683 12.5135 2.54152 12.2681 2.90497 12.0941C3.26842 11.9202 3.66318 11.8213 4.06571 11.8032ZM16.1809 15.9112C16.2911 14.4643 15.9235 13.0211 15.1345 11.8032C15.537 11.8213 15.9318 11.9202 16.2952 12.0941C16.6587 12.2681 16.9834 12.5135 17.2499 12.8156C17.5165 13.1178 17.7194 13.4705 17.8467 13.8529C17.9739 14.2352 18.0228 14.6392 17.9905 15.0408L17.9825 15.1376C17.9756 15.2243 17.9438 15.3072 17.8908 15.3762C17.8379 15.4452 17.7661 15.4973 17.6841 15.5264L17.5921 15.5584C17.1385 15.7184 16.6673 15.8376 16.1809 15.9112Z" fill="black"/>
</svg>
