<?xml version="1.0" encoding="UTF-8" standalone="no"?><svg width="20" height="20" viewBox="0 0 20 20" fill="none" xmlns="http://www.w3.org/2000/svg">
<path d="M7.59999 8C6.22087 8 4.89823 8.54786 3.92304 9.52305C2.94785 10.4982 2.39999 11.8209 2.39999 13.2C2.39999 13.8829 2.5345 14.5591 2.79582 15.19C3.05714 15.8208 3.44017 16.3941 3.92304 16.877C4.89823 17.8521 6.22087 18.4 7.59999 18.4C8.28287 18.4 8.95905 18.2655 9.58995 18.0042C10.2208 17.7429 10.7941 17.3598 11.2769 16.877C11.7598 16.3941 12.1428 15.8208 12.4042 15.19C12.6655 14.5591 12.8 13.8829 12.8 13.2V11.928L18.4 10.4V8H9.59999V9.6H7.99999V8H7.59999ZM9.59999 2.4V6.4H7.99999V2.4H9.59999ZM5.87999 6.624C5.34399 6.752 4.83199 6.944 4.34399 7.2L2.51199 4.704L3.80799 3.76L5.87999 6.624ZM15.088 4.704L13.856 6.4H11.88L13.792 3.76L15.088 4.704Z" fill="#523600"/>
</svg>
