<?xml version="1.0" encoding="UTF-8" standalone="no"?><svg width="20" height="20" viewBox="0 0 20 20" fill="none" xmlns="http://www.w3.org/2000/svg">
<path d="M7.59999 7.9999C6.22087 7.9999 4.89823 8.54776 3.92304 9.52295C2.94785 10.4981 2.39999 11.8208 2.39999 13.1999C2.39999 13.8828 2.5345 14.559 2.79582 15.1899C3.05714 15.8207 3.44017 16.394 3.92304 16.8769C4.89823 17.852 6.22087 18.3999 7.59999 18.3999C8.28287 18.3999 8.95905 18.2654 9.58995 18.0041C10.2208 17.7428 10.7941 17.3597 11.2769 16.8769C11.7598 16.394 12.1428 15.8207 12.4042 15.1899C12.6655 14.559 12.8 13.8828 12.8 13.1999V11.9279L18.4 10.3999V7.9999H9.59999V9.5999H7.99999V7.9999H7.59999ZM9.59999 2.3999V6.3999H7.99999V2.3999H9.59999ZM5.87999 6.6239C5.34399 6.7519 4.83199 6.9439 4.34399 7.1999L2.51199 4.7039L3.80799 3.7599L5.87999 6.6239ZM15.088 4.7039L13.856 6.3999H11.88L13.792 3.7599L15.088 4.7039Z" fill="#661400"/>
</svg>
