<?xml version="1.0" encoding="UTF-8" standalone="no"?><svg width="20" height="20" viewBox="0 0 20 20" fill="none" xmlns="http://www.w3.org/2000/svg">
<g clip-path="url(#clip0_1315_947)">
<path d="M4.80002 5.7C4.80002 4.82479 5.1477 3.98542 5.76657 3.36655C6.38544 2.74768 7.22481 2.4 8.10002 2.4C8.97524 2.4 9.81461 2.74768 10.4335 3.36655C11.0523 3.98542 11.4 4.82479 11.4 5.7C11.4 6.57522 11.0523 7.41458 10.4335 8.03345C9.81461 8.65232 8.97524 9 8.10002 9C7.22481 9 6.38544 8.65232 5.76657 8.03345C5.1477 7.41458 4.80002 6.57522 4.80002 5.7ZM2.40002 15.9C2.40002 14.3883 3.00056 12.9385 4.06952 11.8695C5.13847 10.8005 6.58829 10.2 8.10002 10.2C9.61176 10.2 11.0616 10.8005 12.1305 11.8695C13.1995 12.9385 13.8 14.3883 13.8 15.9V15.9024L13.7992 15.9976C13.7975 16.0993 13.77 16.199 13.7192 16.2871C13.6684 16.3753 13.596 16.4491 13.5088 16.5016C11.8762 17.4848 10.0058 18.0029 8.10002 18C6.12242 18 4.27122 17.4528 2.69202 16.5016C2.60471 16.4492 2.53216 16.3755 2.48121 16.2873C2.43027 16.1991 2.4026 16.0994 2.40082 15.9976L2.40002 15.9ZM15.6 6.6C15.6 6.44087 15.5368 6.28826 15.4243 6.17574C15.3118 6.06322 15.1592 6 15 6C14.8409 6 14.6883 6.06322 14.5758 6.17574C14.4632 6.28826 14.4 6.44087 14.4 6.6V8.4H12.6C12.4409 8.4 12.2883 8.46322 12.1758 8.57574C12.0632 8.68826 12 8.84087 12 9C12 9.15913 12.0632 9.31174 12.1758 9.42427C12.2883 9.53679 12.4409 9.6 12.6 9.6H14.4V11.4C14.4 11.5591 14.4632 11.7117 14.5758 11.8243C14.6883 11.9368 14.8409 12 15 12C15.1592 12 15.3118 11.9368 15.4243 11.8243C15.5368 11.7117 15.6 11.5591 15.6 11.4V9.6H17.4C17.5592 9.6 17.7118 9.53679 17.8243 9.42427C17.9368 9.31174 18 9.15913 18 9C18 8.84087 17.9368 8.68826 17.8243 8.57574C17.7118 8.46322 17.5592 8.4 17.4 8.4H15.6V6.6Z" fill="#661400"/>
</g>
<defs>
<clipPath id="clip0_1315_947">
<rect width="19.2" height="19.2" fill="white" transform="translate(0.400024 0.400002)"/>
</clipPath>
</defs>
</svg>
