<?xml version="1.0" encoding="UTF-8" standalone="no"?><svg width="20" height="20" viewBox="0 0 20 20" fill="none" xmlns="http://www.w3.org/2000/svg">
<path fill-rule="evenodd" clip-rule="evenodd" d="M6.9993 5.20001C6.9993 4.24523 7.37858 3.32955 8.05371 2.65442C8.72884 1.97929 9.64452 1.60001 10.5993 1.60001C11.5541 1.60001 12.4697 1.97929 13.1449 2.65442C13.82 3.32955 14.1993 4.24523 14.1993 5.20001C14.1993 6.15479 13.82 7.07046 13.1449 7.74559C12.4697 8.42072 11.5541 8.80001 10.5993 8.80001C9.64452 8.80001 8.72884 8.42072 8.05371 7.74559C7.37858 7.07046 6.9993 6.15479 6.9993 5.20001ZM4.0001 16.484C4.02707 14.7516 4.73421 13.0992 5.96886 11.8837C7.20352 10.6681 8.86666 9.98676 10.5993 9.98676C12.3319 9.98676 13.9951 10.6681 15.2297 11.8837C16.4644 13.0992 17.1715 14.7516 17.1985 16.484C17.2006 16.6006 17.1686 16.7153 17.1065 16.8141C17.0444 16.9128 16.9549 16.9913 16.8489 17.04C14.8882 17.939 12.7562 18.4029 10.5993 18.4C8.3705 18.4 6.2529 17.9136 4.3497 17.04C4.24368 16.9913 4.15416 16.9128 4.09207 16.8141C4.02997 16.7153 3.99801 16.6006 4.0001 16.484Z" fill="#003D3D"/>
</svg>
