<?xml version="1.0" encoding="UTF-8" standalone="no"?><svg width="20" height="20" viewBox="0 0 20 20" fill="none" xmlns="http://www.w3.org/2000/svg">
<path fill-rule="evenodd" clip-rule="evenodd" d="M2.79999 2.4C2.64086 2.4 2.48825 2.46322 2.37573 2.57574C2.2632 2.68826 2.19999 2.84087 2.19999 3C2.19999 3.15913 2.2632 3.31174 2.37573 3.42427C2.48825 3.53679 2.64086 3.6 2.79999 3.6V16.8H2.19999C2.04086 16.8 1.88825 16.8632 1.77573 16.9757C1.6632 17.0883 1.59999 17.2409 1.59999 17.4C1.59999 17.5591 1.6632 17.7117 1.77573 17.8243C1.88825 17.9368 2.04086 18 2.19999 18H12.4V3.6C12.5591 3.6 12.7117 3.53679 12.8243 3.42427C12.9368 3.31174 13 3.15913 13 3C13 2.84087 12.9368 2.68826 12.8243 2.57574C12.7117 2.46322 12.5591 2.4 12.4 2.4H2.79999ZM5.79999 16.2V14.4C5.79999 14.2409 5.86321 14.0883 5.97573 13.9757C6.08825 13.8632 6.24086 13.8 6.39999 13.8H8.79999C8.95912 13.8 9.11173 13.8632 9.22426 13.9757C9.33678 14.0883 9.39999 14.2409 9.39999 14.4V16.2C9.39999 16.3591 9.33678 16.5117 9.22426 16.6243C9.11173 16.7368 8.95912 16.8 8.79999 16.8H6.39999C6.24086 16.8 6.08825 16.7368 5.97573 16.6243C5.86321 16.5117 5.79999 16.3591 5.79999 16.2ZM5.19999 6C5.19999 5.84087 5.26321 5.68826 5.37573 5.57574C5.48825 5.46322 5.64086 5.4 5.79999 5.4H6.39999C6.55912 5.4 6.71173 5.46322 6.82425 5.57574C6.93678 5.68826 6.99999 5.84087 6.99999 6C6.99999 6.15913 6.93678 6.31174 6.82425 6.42427C6.71173 6.53679 6.55912 6.6 6.39999 6.6H5.79999C5.64086 6.6 5.48825 6.53679 5.37573 6.42427C5.26321 6.31174 5.19999 6.15913 5.19999 6ZM5.79999 7.8C5.64086 7.8 5.48825 7.86322 5.37573 7.97574C5.26321 8.08826 5.19999 8.24087 5.19999 8.4C5.19999 8.55913 5.26321 8.71174 5.37573 8.82427C5.48825 8.93679 5.64086 9 5.79999 9H6.39999C6.55912 9 6.71173 8.93679 6.82425 8.82427C6.93678 8.71174 6.99999 8.55913 6.99999 8.4C6.99999 8.24087 6.93678 8.08826 6.82425 7.97574C6.71173 7.86322 6.55912 7.8 6.39999 7.8H5.79999ZM5.19999 10.8C5.19999 10.6409 5.26321 10.4883 5.37573 10.3757C5.48825 10.2632 5.64086 10.2 5.79999 10.2H6.39999C6.55912 10.2 6.71173 10.2632 6.82425 10.3757C6.93678 10.4883 6.99999 10.6409 6.99999 10.8C6.99999 10.9591 6.93678 11.1117 6.82425 11.2243C6.71173 11.3368 6.55912 11.4 6.39999 11.4H5.79999C5.64086 11.4 5.48825 11.3368 5.37573 11.2243C5.26321 11.1117 5.19999 10.9591 5.19999 10.8ZM8.79999 5.4C8.64086 5.4 8.48825 5.46322 8.37573 5.57574C8.26321 5.68826 8.19999 5.84087 8.19999 6C8.19999 6.15913 8.26321 6.31174 8.37573 6.42427C8.48825 6.53679 8.64086 6.6 8.79999 6.6H9.39999C9.55912 6.6 9.71173 6.53679 9.82425 6.42427C9.93678 6.31174 9.99999 6.15913 9.99999 6C9.99999 5.84087 9.93678 5.68826 9.82425 5.57574C9.71173 5.46322 9.55912 5.4 9.39999 5.4H8.79999ZM8.19999 8.4C8.19999 8.24087 8.26321 8.08826 8.37573 7.97574C8.48825 7.86322 8.64086 7.8 8.79999 7.8H9.39999C9.55912 7.8 9.71173 7.86322 9.82425 7.97574C9.93678 8.08826 9.99999 8.24087 9.99999 8.4C9.99999 8.55913 9.93678 8.71174 9.82425 8.82427C9.71173 8.93679 9.55912 9 9.39999 9H8.79999C8.64086 9 8.48825 8.93679 8.37573 8.82427C8.26321 8.71174 8.19999 8.55913 8.19999 8.4ZM8.79999 10.2C8.64086 10.2 8.48825 10.2632 8.37573 10.3757C8.26321 10.4883 8.19999 10.6409 8.19999 10.8C8.19999 10.9591 8.26321 11.1117 8.37573 11.2243C8.48825 11.3368 8.64086 11.4 8.79999 11.4H9.39999C9.55912 11.4 9.71173 11.3368 9.82425 11.2243C9.93678 11.1117 9.99999 10.9591 9.99999 10.8C9.99999 10.6409 9.93678 10.4883 9.82425 10.3757C9.71173 10.2632 9.55912 10.2 9.39999 10.2H8.79999ZM13.6 6V18H17.8C17.9591 18 18.1117 17.9368 18.2243 17.8243C18.3368 17.7117 18.4 17.5591 18.4 17.4C18.4 17.2409 18.3368 17.0883 18.2243 16.9757C18.1117 16.8632 17.9591 16.8 17.8 16.8H17.2V7.2C17.3591 7.2 17.5117 7.13679 17.6243 7.02427C17.7368 6.91174 17.8 6.75913 17.8 6.6C17.8 6.44087 17.7368 6.28826 17.6243 6.17574C17.5117 6.06322 17.3591 6 17.2 6H13.6ZM14.8 9.6C14.8 9.44087 14.8632 9.28826 14.9757 9.17574C15.0882 9.06322 15.2409 9 15.4 9H15.4064C15.5655 9 15.7181 9.06322 15.8307 9.17574C15.9432 9.28826 16.0064 9.44087 16.0064 9.6V9.6064C16.0064 9.76553 15.9432 9.91814 15.8307 10.0307C15.7181 10.1432 15.5655 10.2064 15.4064 10.2064H15.4C15.2409 10.2064 15.0882 10.1432 14.9757 10.0307C14.8632 9.91814 14.8 9.76553 14.8 9.6064V9.6ZM15.4 11.4C15.2409 11.4 15.0882 11.4632 14.9757 11.5757C14.8632 11.6883 14.8 11.8409 14.8 12V12.0064C14.8 12.3376 15.0688 12.6064 15.4 12.6064H15.4064C15.5655 12.6064 15.7181 12.5432 15.8307 12.4307C15.9432 12.3181 16.0064 12.1655 16.0064 12.0064V12C16.0064 11.8409 15.9432 11.6883 15.8307 11.5757C15.7181 11.4632 15.5655 11.4 15.4064 11.4H15.4ZM14.8 14.4C14.8 14.2409 14.8632 14.0883 14.9757 13.9757C15.0882 13.8632 15.2409 13.8 15.4 13.8H15.4064C15.5655 13.8 15.7181 13.8632 15.8307 13.9757C15.9432 14.0883 16.0064 14.2409 16.0064 14.4V14.4064C16.0064 14.5655 15.9432 14.7181 15.8307 14.8307C15.7181 14.9432 15.5655 15.0064 15.4064 15.0064H15.4C15.2409 15.0064 15.0882 14.9432 14.9757 14.8307C14.8632 14.7181 14.8 14.5655 14.8 14.4064V14.4Z" fill="#661400"/>
</svg>
